# xmcd
#
# Track frame offsets: 
#        150
#        13807
#        23117
#        34180
#        44908
#        58241
#        68775
#        79343
#        94096
#        107360
#        118330
#        131945
#        144531
#
# Disc length: 2066 seconds
#
# Revision: 0
# Processed by: cddbd v1.5.2PL0 Copyright (c) Steve Scherf et al.
# Submitted via: ExactAudioCopyFreeDBPlugin 1.0
#
DISCID=c208100d
DTITLE=Mac Curtis - Songs I Wish I Wrote
DYEAR=2011
DGENRE=Country
TTITLE0=Singer Of Sad Songs
TTITLE1=This Time Tomorrow
TTITLE2=100 Pounds Of Honey
TTITLE3=Sunshine Man
TTITLE4=Turn Away From Me
TTITLE5=One More Night
TTITLE6=Stay Love
TTITLE7=Beautiful Annabel Lee
TTITLE8=So What Let It Rain
TTITLE9=Drowning All My Sorrows
TTITLE10=If You Want To Be My Woman
TTITLE11=Restless
TTITLE12=You've Turned Down The Lights
EXTD=
EXTT0=
EXTT1=
EXTT2=
EXTT3=
EXTT4=
EXTT5=
EXTT6=
EXTT7=
EXTT8=
EXTT9=
EXTT10=
EXTT11=
EXTT12=
PLAYORDER=
